<svg width="512" height="512" viewBox="0 0 100 100" fill="none" xmlns="http://www.w3.org/2000/svg">
  <defs>
    <linearGradient id="fp-brand" x1="0%" y1="0%" x2="100%" y2="100%">
      <stop offset="0%" stop-color="#2563eb" />
      <stop offset="100%" stop-color="#7c3aed" />
    </linearGradient>
  </defs>

  <!-- Flexed arm silhouette -->
  <path
    d="M22 72 C18 68, 16 62, 18 56 L22 46 C24 40, 26 36, 28 32 L30 28 C32 24, 35 20, 38 18 C42 15, 48 14, 52 16 C56 18, 58 22, 60 26 L62 30 C65 32, 68 32, 70 30 C72 28, 76 28, 78 30 C80 32, 80 36, 78 38 C76 40, 72 40, 68 38 L64 36 C62 40, 58 44, 56 48 L52 56 C48 62, 42 68, 36 72 C32 74, 26 74, 22 72 Z"
    fill="url(#fp-brand)"
    opacity="0.2"
  />
  <path
    d="M22 72 C18 68, 16 62, 18 56 L22 46 C24 40, 26 36, 28 32 L30 28 C32 24, 35 20, 38 18 C42 15, 48 14, 52 16 C56 18, 58 22, 60 26 L62 30 C65 32, 68 32, 70 30 C72 28, 76 28, 78 30 C80 32, 80 36, 78 38 C76 40, 72 40, 68 38 L64 36 C62 40, 58 44, 56 48 L52 56 C48 62, 42 68, 36 72 C32 74, 26 74, 22 72 Z"
    stroke="url(#fp-brand)"
    stroke-width="3"
    stroke-linecap="round"
    stroke-linejoin="round"
    fill="none"
  />

  <!-- Clock circle on bicep -->
  <circle cx="42" cy="30" r="13" stroke="url(#fp-brand)" stroke-width="3" fill="none" />

  <!-- Hour hand -->
  <line x1="42" y1="30" x2="48" y2="23" stroke="url(#fp-brand)" stroke-width="3.5" stroke-linecap="round" />

  <!-- Minute hand -->
  <line x1="42" y1="30" x2="42" y2="19" stroke="url(#fp-brand)" stroke-width="2.5" stroke-linecap="round" />

  <!-- Center dot -->
  <circle cx="42" cy="30" r="2" fill="url(#fp-brand)" />

  <!-- Tick marks -->
  <line x1="42" y1="18" x2="42" y2="20" stroke="url(#fp-brand)" stroke-width="2" stroke-linecap="round" />
  <line x1="54" y1="30" x2="52" y2="30" stroke="url(#fp-brand)" stroke-width="2" stroke-linecap="round" />
  <line x1="42" y1="42" x2="42" y2="40" stroke="url(#fp-brand)" stroke-width="2" stroke-linecap="round" />
  <line x1="30" y1="30" x2="32" y2="30" stroke="url(#fp-brand)" stroke-width="2" stroke-linecap="round" />

  <!-- Energy rays -->
  <line x1="72" y1="26" x2="78" y2="22" stroke="url(#fp-brand)" stroke-width="2.5" stroke-linecap="round" opacity="0.6" />
  <line x1="74" y1="32" x2="80" y2="32" stroke="url(#fp-brand)" stroke-width="2.5" stroke-linecap="round" opacity="0.6" />
  <line x1="72" y1="38" x2="78" y2="42" stroke="url(#fp-brand)" stroke-width="2.5" stroke-linecap="round" opacity="0.6" />
</svg>
